<!-- dark.svg -->
<svg width="1180" height="610" viewBox="0 0 1180 610" xmlns="http://www.w3.org/2000/svg">
  <defs>
    <!-- Background Blur & Noise -->
    <filter id="bg-blur" x="-20%" y="-20%" width="140%" height="140%">
      <feGaussianBlur stdDeviation="40" result="blur" />
    </filter>
    <filter id="glass-blur" x="-20%" y="-20%" width="140%" height="140%">
      <feGaussianBlur stdDeviation="15" result="blur" />
      <feColorMatrix type="matrix" values="1 0 0 0 0  0 1 0 0 0  0 0 1 0 0  0 0 0 0.8 0"/>
    </filter>
    <filter id="glow">
      <feGaussianBlur stdDeviation="8" result="coloredBlur"/>
      <feMerge>
        <feMergeNode in="coloredBlur"/>
        <feMergeNode in="SourceGraphic"/>
      </feMerge>
    </filter>

    <!-- Gradients -->
    <linearGradient id="accent-grad" x1="0%" y1="0%" x2="100%" y2="100%">
      <stop offset="0%" stop-color="#7C3AED" />
      <stop offset="50%" stop-color="#22D3EE" />
      <stop offset="100%" stop-color="#10B981" />
      <animate attributeName="x1" values="0%;20%;0%" dur="8s" repeatCount="indefinite" />
      <animate attributeName="y1" values="0%;20%;0%" dur="8s" repeatCount="indefinite" />
    </linearGradient>

    <linearGradient id="ascii-grad" x1="0%" y1="0%" x2="0%" y2="100%">
      <stop offset="0%" stop-color="#22D3EE" />
      <stop offset="100%" stop-color="#7C3AED" />
      <animate attributeName="y1" values="0%;-50%;0%" dur="10s" repeatCount="indefinite" />
      <animate attributeName="y2" values="100%;150%;100%" dur="10s" repeatCount="indefinite" />
    </linearGradient>

    <!-- Border Shimmer -->
    <linearGradient id="shimmer" x1="0%" y1="0%" x2="200%" y2="200%">
      <stop offset="0%" stop-color="rgba(255,255,255,0.05)" />
      <stop offset="30%" stop-color="rgba(255,255,255,0.4)" />
      <stop offset="60%" stop-color="rgba(255,255,255,0.05)" />
      <animate attributeName="x1" values="-100%;200%" dur="4s" repeatCount="indefinite" />
      <animate attributeName="x2" values="100%;400%" dur="4s" repeatCount="indefinite" />
    </linearGradient>

    <!-- Reveal Clip Paths -->
    <clipPath id="ascii-reveal">
      <rect x="0" y="0" width="450" height="0">
        <animate attributeName="height" values="0;550" dur="2s" fill="freeze" />
      </rect>
    </clipPath>
    
    <clipPath id="type-clip-1">
      <rect x="0" y="0" width="0" height="40">
        <animate attributeName="width" values="0;350;350;0;0" keyTimes="0; 0.15; 0.85; 0.95; 1" dur="12s" begin="0s" repeatCount="indefinite" />
      </rect>
    </clipPath>
    <clipPath id="type-clip-2">
      <rect x="0" y="0" width="0" height="40">
        <animate attributeName="width" values="0;0;0;350;350;0;0" keyTimes="0; 0.25; 0.25; 0.4; 0.85; 0.95; 1" dur="12s" begin="0s" repeatCount="indefinite" />
      </rect>
    </clipPath>
    <clipPath id="type-clip-3">
      <rect x="0" y="0" width="0" height="40">
        <animate attributeName="width" values="0;0;0;350;350;0;0" keyTimes="0; 0.5; 0.5; 0.65; 0.85; 0.95; 1" dur="12s" begin="0s" repeatCount="indefinite" />
      </rect>
    </clipPath>
    <clipPath id="type-clip-4">
      <rect x="0" y="0" width="0" height="40">
        <animate attributeName="width" values="0;0;0;350;350;0;0" keyTimes="0; 0.75; 0.75; 0.9; 0.98; 0.99; 1" dur="12s" begin="0s" repeatCount="indefinite" />
      </rect>
    </clipPath>

  </defs>

  <!-- Global Styles -->
  <style>
    .font-mono { font-family: ui-monospace, SFMono-Regular, "Menlo", "Consolas", monospace; }
    .font-sans { font-family: -apple-system, BlinkMacSystemFont, "Segoe UI", Helvetica, Arial, sans-serif; }
    .pill { cursor: pointer; transition: all 0.3s ease; }
    .pill:hover rect { fill: rgba(34, 211, 238, 0.15); stroke: #22D3EE; stroke-width: 1.5; filter: drop-shadow(0 0 6px rgba(34, 211, 238, 0.6)); }
    .pill:hover text { fill: #22D3EE; }
    .social-icon { cursor: pointer; transition: all 0.3s ease; }
    .social-icon:hover path { fill: #22D3EE; filter: drop-shadow(0 0 8px rgba(34,211,238,0.8)); }
    .social-icon:hover rect { stroke: #22D3EE; }
  </style>

  <!-- Background Base -->
  <rect width="1180" height="610" fill="#030712" rx="16" />

  <!-- Floating Background Orbs -->
  <g filter="url(#bg-blur)" opacity="0.4">
    <circle cx="200" cy="150" r="120" fill="#7C3AED">
      <animateMotion path="M0,0 Q50,100 100,0 T0,0" dur="20s" repeatCount="indefinite"/>
    </circle>
    <circle cx="900" cy="450" r="140" fill="#10B981">
      <animateMotion path="M0,0 Q-50,-100 -100,0 T0,0" dur="25s" repeatCount="indefinite"/>
    </circle>
    <circle cx="600" cy="300" r="100" fill="#22D3EE">
      <animateMotion path="M0,0 Q100,-50 0,-100 T0,0" dur="18s" repeatCount="indefinite"/>
    </circle>
  </g>

  <!-- Animated Particles -->
  <g opacity="0.6">
    <circle cx="150" cy="500" r="2" fill="#22D3EE"><animate attributeName="cy" values="500;450;500" dur="4s" repeatCount="indefinite" /><animate attributeName="opacity" values="0;1;0" dur="4s" repeatCount="indefinite" /></circle>
    <circle cx="1050" cy="100" r="2" fill="#10B981"><animate attributeName="cy" values="100;50;100" dur="5s" repeatCount="indefinite" /><animate attributeName="opacity" values="0;1;0" dur="5s" repeatCount="indefinite" /></circle>
    <circle cx="850" cy="550" r="2" fill="#7C3AED"><animate attributeName="cy" values="550;500;550" dur="6s" repeatCount="indefinite" /><animate attributeName="opacity" values="0;1;0" dur="6s" repeatCount="indefinite" /></circle>
  </g>

  <!-- Scanline Overlay -->
  <rect width="1180" height="4" fill="rgba(34,211,238,0.1)">
    <animate attributeName="y" values="-10;620" dur="4s" repeatCount="indefinite" />
  </rect>

  <!-- ======================== LEFT SIDE: ASCII PANEL ======================== -->
  <g transform="translate(30, 30)">
    <!-- Panel Glass -->
    <rect width="425" height="550" rx="12" fill="#0F172A" fill-opacity="0.75" stroke="url(#shimmer)" stroke-width="1.5" />
    
    <!-- Top Bar -->
    <circle cx="20" cy="20" r="5" fill="#EF4444" opacity="0.8"/>
    <circle cx="38" cy="20" r="5" fill="#F59E0B" opacity="0.8"/>
    <circle cx="56" cy="20" r="5" fill="#10B981" opacity="0.8"/>
    <text x="75" y="24" class="font-mono" font-size="12" fill="#94A3B8" opacity="0.6">identity.exe</text>

    <!-- Floating ASCII Group -->
    <g clip-path="url(#ascii-reveal)">
      <g filter="url(#glow)">
        <animateTransform attributeName="transform" type="translate" values="0,0; 0,-8; 0,0" dur="6s" repeatCount="indefinite" />
        <text x="35" y="110" class="font-mono" font-size="11.5" font-weight="bold" fill="url(#ascii-grad)" xml:space="preserve" opacity="0.9">
<tspan x="35" dy="1.1em">                                          </tspan>
<tspan x="35" dy="1.1em">                                          </tspan>
<tspan x="35" dy="1.1em">                            ...           </tspan>
<tspan x="35" dy="1.1em">                    .            .   .....</tspan>
<tspan x="35" dy="1.1em">          .. ''..   .     ..       .   .  </tspan>
<tspan x="35" dy="1.1em">          :~~~~-;;;;;;--;:.  ..    ..     </tspan>
<tspan x="35" dy="1.1em">   .      .-xXXXXXXXXXXX##X=;........     </tspan>
<tspan x="35" dy="1.1em">        .'-~:;xX#XXX###X#XXXX=.    .      </tspan>
<tspan x="35" dy="1.1em">         . .. .:;::::::;+xxXXX+..         </tspan>
<tspan x="35" dy="1.1em">                        .::=##X==.        </tspan>
<tspan x="35" dy="1.1em">          ;=======-.-==xX#XXXX;           </tspan>
<tspan x="35" dy="1.1em">       ... .~XXX##Xx-:+X##XXx;  .         </tspan>
<tspan x="35" dy="1.1em">    ........ .-xXXXXXX~:+=~;.             </tspan>
<tspan x="35" dy="1.1em">     .....    .'~xXxXXXX+'.:~;:.          </tspan>
<tspan x="35" dy="1.1em">            . .;-:-xXXXXXX+:..' .         </tspan>
<tspan x="35" dy="1.1em">             .......;=XXXXXX+:       .....</tspan>
<tspan x="35" dy="1.1em">          . .'.. ...  '....'''            </tspan>
<tspan x="35" dy="1.1em">             .  .             .           </tspan>
<tspan x="35" dy="1.1em">              ..               .          </tspan>
<tspan x="35" dy="1.1em">              .                           </tspan>
<tspan x="35" dy="1.1em">                                          </tspan>
        </text>
      </g>
    </g>

    <!-- ASCII Cursor -->
    <rect x="235" y="318" width="8" height="12" fill="#22D3EE">
      <animate attributeName="opacity" values="1;0;1" dur="0.8s" repeatCount="indefinite" />
    </rect>
  </g>


  <!-- ======================== RIGHT SIDE: TERMINAL PANEL ======================== -->
  <g transform="translate(485, 30)">
    <!-- Panel Glass -->
    <rect width="665" height="550" rx="12" fill="#0F172A" fill-opacity="0.75" stroke="url(#shimmer)" stroke-width="1.5" />
    
    <g transform="translate(40, 50)">
      
      <!-- Greeting -->
      <text x="0" y="20" class="font-sans" font-size="22" fill="#94A3B8" font-weight="500">Hi 👋</text>
      <text x="0" y="70" class="font-sans" font-size="52" fill="#F8FAFC" font-weight="800" letter-spacing="-1">
        I'm <tspan fill="url(#accent-grad)">RKSha</tspan>
      </text>

      <!-- Animated Typing Roles -->
      <g transform="translate(0, 110)" class="font-mono" font-size="20" fill="#22D3EE" filter="url(#glow)">
        <text x="0" y="0">> </text>
        
        <g clip-path="url(#type-clip-1)">
          <text x="25" y="0">Cybersecurity Engineer</text>
        </g>
        <g clip-path="url(#type-clip-2)">
          <text x="25" y="0">Penetration Tester</text>
        </g>
        <g clip-path="url(#type-clip-3)">
          <text x="25" y="0">Digital Forensics Analyst</text>
        </g>
        <g clip-path="url(#type-clip-4)">
          <text x="25" y="0">Network Security Specialist</text>
        </g>
        
        <!-- Typing Cursor -->
        <rect x="25" y="-16" width="12" height="20" fill="#22D3EE">
          <animate attributeName="x" values="275; 0; 0; 230; 0; 0; 300; 0; 0; 325; 0; 0" keyTimes="0; 0.15; 0.25; 0.4; 0.5; 0.65; 0.75; 0.9; 0.98; 0.99; 1" dur="12s" repeatCount="indefinite" />
          <animate attributeName="opacity" values="1;0;1" dur="0.8s" repeatCount="indefinite" />
        </rect>
      </g>

      <!-- Sequential Info List -->
      <g transform="translate(0, 175)" class="font-mono" font-size="14" fill="#94A3B8">
        
        <g opacity="0"><animate attributeName="opacity" to="1" dur="0.5s" begin="0.5s" fill="freeze"/>
          <text x="0" y="0" fill="#7C3AED" font-weight="bold">const</text> <text x="45" y="0" fill="#F8FAFC">location</text> <text x="120" y="0" fill="#22D3EE">= </text>
          <text x="140" y="0" fill="#10B981">"Bokaro Steel City, IN"</text><text x="315" y="0">;</text>
        </g>
        
        <g opacity="0"><animate attributeName="opacity" to="1" dur="0.5s" begin="0.8s" fill="freeze"/>
          <text x="0" y="30" fill="#7C3AED" font-weight="bold">const</text> <text x="45" y="30" fill="#F8FAFC">education</text> <text x="125" y="30" fill="#22D3EE">= </text>
          <text x="145" y="30" fill="#10B981">"National Forensic Sciences Univ"</text><text x="410" y="30">;</text>
        </g>
        
        <g opacity="0"><animate attributeName="opacity" to="1" dur="0.5s" begin="1.1s" fill="freeze"/>
          <text x="0" y="60" fill="#7C3AED" font-weight="bold">const</text> <text x="45" y="60" fill="#F8FAFC">focus</text> <text x="90" y="60" fill="#22D3EE">= </text>
          <text x="110" y="60" fill="#10B981">"Red Teaming &amp; Security Automation"</text><text x="395" y="60">;</text>
        </g>
        
        <g opacity="0"><animate attributeName="opacity" to="1" dur="0.5s" begin="1.4s" fill="freeze"/>
          <text x="0" y="90" fill="#7C3AED" font-weight="bold">const</text> <text x="45" y="90" fill="#F8FAFC">portfolio</text> <text x="125" y="90" fill="#22D3EE">= </text>
          <text x="145" y="90" fill="#10B981">"github.com/cyberRKSha"</text><text x="330" y="90">;</text>
        </g>
        
        <g opacity="0"><animate attributeName="opacity" to="1" dur="0.5s" begin="1.7s" fill="freeze"/>
          <text x="0" y="120" fill="#7C3AED" font-weight="bold">const</text> <text x="45" y="120" fill="#F8FAFC">email</text> <text x="90" y="120" fill="#22D3EE">= </text>
          <text x="110" y="120" fill="#10B981">"cyberrksha@gmail.com"</text><text x="285" y="120">;</text>
        </g>
      </g>

      <!-- Skills Section -->
      <g transform="translate(0, 335)">
        <text x="0" y="0" class="font-sans" font-size="16" font-weight="600" fill="#F8FAFC" letter-spacing="1">TECHNICAL ARSENAL</text>
        
        <g transform="translate(0, 20)" class="font-mono" font-size="12">
          <!-- Row 1 -->
          <g class="pill" transform="translate(0,0)">
            <rect width="70" height="28" rx="14" fill="rgba(255,255,255,0.05)" stroke="rgba(255,255,255,0.1)" />
            <text x="35" y="18" fill="#94A3B8" text-anchor="middle">Python</text>
          </g>
          <g class="pill" transform="translate(80,0)">
            <rect width="65" height="28" rx="14" fill="rgba(255,255,255,0.05)" stroke="rgba(255,255,255,0.1)" />
            <text x="32.5" y="18" fill="#94A3B8" text-anchor="middle">Linux</text>
          </g>
          <g class="pill" transform="translate(155,0)">
            <rect width="60" height="28" rx="14" fill="rgba(255,255,255,0.05)" stroke="rgba(255,255,255,0.1)" />
            <text x="30" y="18" fill="#94A3B8" text-anchor="middle">Bash</text>
          </g>
          <g class="pill" transform="translate(225,0)">
            <rect width="75" height="28" rx="14" fill="rgba(255,255,255,0.05)" stroke="rgba(255,255,255,0.1)" />
            <text x="37.5" y="18" fill="#94A3B8" text-anchor="middle">Docker</text>
          </g>
          <g class="pill" transform="translate(310,0)">
            <rect width="75" height="28" rx="14" fill="rgba(255,255,255,0.05)" stroke="rgba(255,255,255,0.1)" />
            <text x="37.5" y="18" fill="#94A3B8" text-anchor="middle">Splunk</text>
          </g>

          <!-- Row 2 -->
          <g class="pill" transform="translate(0,40)">
            <rect width="85" height="28" rx="14" fill="rgba(255,255,255,0.05)" stroke="rgba(255,255,255,0.1)" />
            <text x="42.5" y="18" fill="#94A3B8" text-anchor="middle">Suricata</text>
          </g>
          <g class="pill" transform="translate(95,40)">
            <rect width="90" height="28" rx="14" fill="rgba(255,255,255,0.05)" stroke="rgba(255,255,255,0.1)" />
            <text x="45" y="18" fill="#94A3B8" text-anchor="middle">Wireshark</text>
          </g>
          <g class="pill" transform="translate(195,40)">
            <rect width="95" height="28" rx="14" fill="rgba(255,255,255,0.05)" stroke="rgba(255,255,255,0.1)" />
            <text x="47.5" y="18" fill="#94A3B8" text-anchor="middle">Metasploit</text>
          </g>
          <g class="pill" transform="translate(300,40)">
            <rect width="60" height="28" rx="14" fill="rgba(255,255,255,0.05)" stroke="rgba(255,255,255,0.1)" />
            <text x="30" y="18" fill="#94A3B8" text-anchor="middle">Nmap</text>
          </g>
          <g class="pill" transform="translate(370,40)">
            <rect width="50" height="28" rx="14" fill="rgba(255,255,255,0.05)" stroke="rgba(255,255,255,0.1)" />
            <text x="25" y="18" fill="#94A3B8" text-anchor="middle">Git</text>
          </g>
        </g>
      </g>

      <!-- Social Icons -->
      <g transform="translate(0, 440)">
        <rect width="665" height="1" y="-20" fill="rgba(255,255,255,0.05)" />
        
        <a href="https://github.com/cyberRKSha" target="_blank" class="social-icon">
          <rect width="36" height="36" rx="8" fill="rgba(255,255,255,0.02)" stroke="rgba(255,255,255,0.1)" />
          <path d="M18 7C11.925 7 7 11.925 7 18C7 22.86 10.155 27.02 14.53 28.475C15.08 28.575 15.28 28.235 15.28 27.945C15.28 27.685 15.27 26.835 15.265 25.88C12.205 26.545 11.56 24.63 11.56 24.63C11.06 23.36 10.345 23.02 10.345 23.02C9.355 22.345 10.42 22.36 10.42 22.36C11.515 22.435 12.09 23.485 12.09 23.485C13.065 25.155 14.64 24.675 15.3 24.39C15.4 23.64 15.705 23.165 16.04 22.89C13.595 22.615 11.025 21.67 11.025 17.425C11.025 16.215 11.455 15.225 12.165 14.46C12.05 14.18 11.675 13.055 12.275 11.52C12.275 11.52 13.205 11.22 15.26 12.615C16.145 12.37 17.08 12.245 18 12.245C18.92 12.245 19.855 12.37 20.74 12.615C22.79 11.22 23.72 11.52 23.72 11.52C24.325 13.055 23.95 14.18 23.835 14.46C24.545 15.225 24.97 16.215 24.97 17.425C24.97 21.685 22.395 22.61 19.945 22.88C20.36 23.24 20.73 23.945 20.73 25.025C20.73 26.575 20.715 27.825 20.715 27.945C20.715 28.24 20.91 28.58 21.47 28.47C25.84 27.015 29 22.855 29 18C29 11.925 24.075 7 18 7Z" fill="#94A3B8"/>
        </a>

        <a href="https://linkedin.com/in/rksha01" target="_blank" class="social-icon" transform="translate(48, 0)">
          <rect width="36" height="36" rx="8" fill="rgba(255,255,255,0.02)" stroke="rgba(255,255,255,0.1)" />
          <path d="M12.04 25H9V14H12.04V25ZM10.51 12.65C9.54 12.65 8.9 12.01 8.9 11.19C8.9 10.36 9.55 9.73 10.53 9.73C11.5 9.73 12.13 10.36 12.14 11.19C12.14 12.01 11.5 12.65 10.51 12.65ZM26 25H22.95V19.16C22.95 17.69 22.42 16.69 21.1 16.69C20.09 16.69 19.48 17.37 19.22 18.03C19.12 18.27 19.1 18.6 19.1 18.93V25H16.05C16.05 25 16.09 14.9 16.05 14H19.1V15.56C19.5 14.94 20.23 13.78 22.36 13.78C24.74 13.78 26 15.34 26 18.69V25Z" fill="#94A3B8"/>
        </a>
      </g>
    </g>
  </g>
</svg>
